<svg width="272" height="347" viewBox="0 0 272 347" fill="none" xmlns="http://www.w3.org/2000/svg">
<g clip-path="url(#clip0_6_209)">
<rect x="1" y="1" width="270" height="345" fill="#C0C0C0"/>
<path d="M271.394 1.30815C271.564 1.09069 271.526 0.776436 271.308 0.606247C271.091 0.436059 270.776 0.474382 270.606 0.691846L271.394 1.30815ZM0.606247 345.692C0.436059 345.909 0.474382 346.224 0.691846 346.394C0.909309 346.564 1.22356 346.526 1.39375 346.308L0.606247 345.692ZM1.39375 0.691846C1.22356 0.474382 0.909309 0.436059 0.691846 0.606247C0.474382 0.776436 0.436059 1.09069 0.606247 1.30815L1.39375 0.691846ZM270.606 346.308C270.776 346.526 271.091 346.564 271.308 346.394C271.526 346.224 271.564 345.909 271.394 345.692L270.606 346.308ZM270.606 0.691846L0.606247 345.692L1.39375 346.308L271.394 1.30815L270.606 0.691846ZM0.606247 1.30815L270.606 346.308L271.394 345.692L1.39375 0.691846L0.606247 1.30815Z" fill="black"/>
</g>
<rect x="0.5" y="0.5" width="271" height="346" stroke="black" stroke-linejoin="round"/>
<defs>
<clipPath id="clip0_6_209">
<rect x="1" y="1" width="270" height="345" fill="white"/>
</clipPath>
</defs>
</svg>
