<svg width="72" height="72" viewBox="0 0 72 72" fill="none" xmlns="http://www.w3.org/2000/svg">
<g clip-path="url(#clip0_6_97)">
<path d="M71.3536 1.35355C71.5488 1.15829 71.5488 0.841709 71.3536 0.646447C71.1583 0.451184 70.8417 0.451184 70.6464 0.646447L71.3536 1.35355ZM0.646447 70.6464C0.451184 70.8417 0.451184 71.1583 0.646447 71.3536C0.841709 71.5488 1.15829 71.5488 1.35355 71.3536L0.646447 70.6464ZM1.35355 0.646447C1.15829 0.451184 0.841709 0.451184 0.646447 0.646447C0.451184 0.841709 0.451184 1.15829 0.646447 1.35355L1.35355 0.646447ZM70.6464 71.3536C70.8417 71.5488 71.1583 71.5488 71.3536 71.3536C71.5488 71.1583 71.5488 70.8417 71.3536 70.6464L70.6464 71.3536ZM70.6464 0.646447L0.646447 70.6464L1.35355 71.3536L71.3536 1.35355L70.6464 0.646447ZM0.646447 1.35355L70.6464 71.3536L71.3536 70.6464L1.35355 0.646447L0.646447 1.35355Z" fill="black"/>
</g>
<rect x="0.5" y="0.5" width="71" height="71" stroke="black" stroke-linejoin="round"/>
<defs>
<clipPath id="clip0_6_97">
<rect x="1" y="1" width="70" height="70" fill="white"/>
</clipPath>
</defs>
</svg>
