<svg width="436" height="438" viewBox="0 0 436 438" fill="none" xmlns="http://www.w3.org/2000/svg">
<g clip-path="url(#clip0_57_49)">
<rect x="1" y="88" width="270" height="349" fill="#DCDBDB"/>
<path d="M271.395 88.3059C271.564 88.0875 271.524 87.7735 271.306 87.6045C271.088 87.4356 270.774 87.4756 270.605 87.6941L271.395 88.3059ZM0.604532 436.694C0.435561 436.912 0.47564 437.226 0.694051 437.395C0.912461 437.564 1.2265 437.524 1.39547 437.306L0.604532 436.694ZM1.39547 87.6941C1.2265 87.4756 0.912461 87.4356 0.694051 87.6045C0.47564 87.7735 0.435561 88.0875 0.604532 88.3059L1.39547 87.6941ZM270.605 437.306C270.774 437.524 271.088 437.564 271.306 437.395C271.524 437.226 271.564 436.912 271.395 436.694L270.605 437.306ZM270.605 87.6941L0.604532 436.694L1.39547 437.306L271.395 88.3059L270.605 87.6941ZM0.604532 88.3059L270.605 437.306L271.395 436.694L1.39547 87.6941L0.604532 88.3059Z" fill="black"/>
</g>
<rect x="0.5" y="87.5" width="271" height="350" stroke="black" stroke-linejoin="round"/>
<g clip-path="url(#clip1_57_49)">
<rect x="165" y="1" width="270" height="345" fill="#C0C0C0"/>
<path d="M435.394 1.30815C435.564 1.09069 435.526 0.776436 435.308 0.606247C435.091 0.436059 434.776 0.474382 434.606 0.691846L435.394 1.30815ZM164.606 345.692C164.436 345.909 164.474 346.224 164.692 346.394C164.909 346.564 165.224 346.526 165.394 346.308L164.606 345.692ZM165.394 0.691846C165.224 0.474382 164.909 0.436059 164.692 0.606247C164.474 0.776436 164.436 1.09069 164.606 1.30815L165.394 0.691846ZM434.606 346.308C434.776 346.526 435.091 346.564 435.308 346.394C435.526 346.224 435.564 345.909 435.394 345.692L434.606 346.308ZM434.606 0.691846L164.606 345.692L165.394 346.308L435.394 1.30815L434.606 0.691846ZM164.606 1.30815L434.606 346.308L435.394 345.692L165.394 0.691846L164.606 1.30815Z" fill="black"/>
</g>
<rect x="164.5" y="0.5" width="271" height="346" stroke="black" stroke-linejoin="round"/>
<defs>
<clipPath id="clip0_57_49">
<rect x="1" y="88" width="270" height="349" fill="white"/>
</clipPath>
<clipPath id="clip1_57_49">
<rect x="165" y="1" width="270" height="345" fill="white"/>
</clipPath>
</defs>
</svg>
