<svg width="242" height="146" viewBox="0 0 242 146" fill="none" xmlns="http://www.w3.org/2000/svg">
<g clip-path="url(#clip0_426_294)">
<path d="M241.257 1.42875C241.494 1.28667 241.571 0.979542 241.429 0.742752C241.287 0.505962 240.98 0.429179 240.743 0.571254L241.257 1.42875ZM0.742752 144.571C0.505962 144.713 0.429179 145.02 0.571254 145.257C0.713328 145.494 1.02046 145.571 1.25725 145.429L0.742752 144.571ZM1.25725 0.571254C1.02046 0.429179 0.713328 0.505962 0.571254 0.742752C0.429179 0.979542 0.505962 1.28667 0.742752 1.42875L1.25725 0.571254ZM240.743 145.429C240.98 145.571 241.287 145.494 241.429 145.257C241.571 145.02 241.494 144.713 241.257 144.571L240.743 145.429ZM240.743 0.571254L0.742752 144.571L1.25725 145.429L241.257 1.42875L240.743 0.571254ZM0.742752 1.42875L240.743 145.429L241.257 144.571L1.25725 0.571254L0.742752 1.42875Z" fill="black"/>
</g>
<rect x="0.5" y="0.5" width="241" height="145" stroke="black" stroke-linejoin="round"/>
<defs>
<clipPath id="clip0_426_294">
<rect x="1" y="1" width="240" height="144" fill="white"/>
</clipPath>
</defs>
</svg>
